#!OML:ASF E:\Steps\Project 1\Capture day 1\Session 2\Subject.ASF
:FULLY-SPECIFIED
:DEGREES
389
root 3.75701 17.0899 16.1089 -153.962 -2.42216 176.214
lowerback -30.619 -2.63569 -8.86853
upperback -2.00707 -1.19118 -0.602433
thorax 13.8503 -1.40695 3.56999
lowerneck -0.54923 -2.64206 0.415604
upperneck 4.40248 -3.69832 1.84164
head 1.47882 -1.84381 0.444952
rclavicle 7.15625e-015 -3.97569e-016
rhumerus -36.6885 -16.9107 -78.2199
rradius 31.9779
rwrist -4.47831
rhand -2.97813 -54.4828
rfingers 7.12502
rthumb 22.735 -83.1633
lclavicle 7.15625e-015 -3.97569e-016
lhumerus -31.9315 5.51384 80.3307
lradius 21.5376
lwrist -4.64116
lhand -20.8003 -12.0256
lfingers 7.12502
lthumb 5.5672 17.8813
rfemur -20.656 4.33668 18.7957
rtibia 5.47601
rfoot -18.6887 -4.84372
rtoes -16.4998
lfemur -22.2402 -7.77452 -24.0081
ltibia 6.83242
lfoot -6.37578 -4.21465
ltoes -22.1119
390
root 3.75378 17.0891 16.1096 -153.889 -2.37439 176.294
lowerback -30.742 -2.61452 -8.82557
upperback -2.02508 -1.17657 -0.584988
thorax 13.8818 -1.40202 3.56808
lowerneck -0.505928 -2.75745 0.389473
upperneck 4.35138 -3.85873 1.99692
head 1.46072 -1.92311 0.495834
rclavicle -4.96962e-016 -5.56597e-015
rhumerus -36.7144 -17.0704 -78.1108
rradius 31.7805
rwrist -4.33369
rhand -2.89224 -54.8533
rfingers 7.12502
rthumb 22.8174 -83.5237
lclavicle -4.96962e-016 -5.56597e-015
lhumerus -31.9707 5.39789 80.2768
lradius 21.5234
lwrist -4.76931
lhand -20.8023 -12.4029
lfingers 7.12502
lthumb 5.56528 17.5041
rfemur -20.8276 4.49443 18.8401
rtibia 5.63859
rfoot -18.7615 -4.93041
rtoes -16.2695
lfemur -22.3492 -7.74804 -23.9363
ltibia 6.89056
lfoot -6.49125 -4.04897
ltoes -23.6439
391
root 3.74995 17.0879 16.1065 -153.847 -2.32025 176.368
lowerback -30.8419 -2.55076 -8.74867
upperback -2.05065 -1.11587 -0.621328
thorax 13.887 -1.37308 3.5086
lowerneck -0.48552 -2.89269 0.514848
upperneck 4.46244 -4.05091 2.0111
head 1.49184 -2.0184 0.475988
rclavicle 4.87022e-015 2.90226e-014
rhumerus -36.8468 -17.4107 -77.9705
rradius 31.5961
rwrist -4.08274
rhand -2.86548 -54.8103
rfingers 7.12502
rthumb 22.8431 -83.4775
lclavicle 4.87022e-015 2.90226e-014
lhumerus -31.9936 5.21286 80.201
lradius 21.4185
lwrist -4.6978
lhand -20.4883 -12.3306
lfingers 7.12502
lthumb 5.86835 17.5682
rfemur -20.9068 4.35902 18.9211
rtibia 5.70777
rfoot -18.8522 -4.70211
rtoes -16.1312
lfemur -22.369 -7.78539 -23.862
ltibia 6.85994
lfoot -6.64521 -3.85173
ltoes -24.4479
392
root 3.74663 17.0873 16.1021 -153.848 -2.2874 176.451
lowerback -30.8702 -2.51474 -8.67255
upperback -2.07564 -1.10018 -0.606739
thorax 13.8691 -1.36249 3.48952
lowerneck -0.438836 -2.98467 0.429101
upperneck 4.5028 -4.1822 2.13956
head 1.50314 -2.08465 0.528362
rclavicle -2.98177e-015 -8.34896e-015
rhumerus -36.9683 -17.5305 -77.8297
rradius 31.4408
rwrist -3.9721
rhand -2.85997 -54.5902
rfingers 7.12502
rthumb 22.8483 -83.2568
lclavicle -2.98177e-015 -8.34896e-015
lhumerus -32.0367 5.25449 80.1312
lradius 21.3436
lwrist -4.69731
lhand -20.1595 -11.9883
lfingers 7.12502
lthumb 6.18586 17.9014
rfemur -20.9136 4.18366 19.0309
rtibia 5.71632
rfoot -18.8983 -4.47976
rtoes -16.3527
lfemur -22.3262 -7.86371 -23.7612
ltibia 6.78967
lfoot -6.62279 -3.73807
ltoes -24.2872
393
root 3.74415 17.0862 16.0994 -153.833 -2.24992 176.527
lowerback -30.9019 -2.49981 -8.61427
upperback -2.10226 -1.10811 -0.576066
thorax 13.8541 -1.36404 3.48781
lowerneck -0.241923 -3.08276 0.429206
upperneck 4.30623 -4.31032 2.24629
head 1.41078 -2.15005 0.564124
rclavicle 4.52235e-015 -4.13472e-014
rhumerus -36.9614 -17.6605 -77.6754
rradius 31.1202
rwrist -3.79128
rhand -2.81811 -54.0149
rfingers 7.12502
rthumb 22.8885 -82.6765
lclavicle 4.52235e-015 -4.13472e-014
lhumerus -32.095 5.4993 80.0054
lradius 21.3152
lwrist -4.99402
lhand -19.939 -11.6753
lfingers 7.12502
lthumb 6.39873 18.208
rfemur -20.9383 4.20793 19.1039
rtibia 5.7267
rfoot -18.9201 -4.43373
rtoes -16.2549
lfemur -22.3087 -7.9141 -23.6718
ltibia 6.74296
lfoot -6.57735 -3.63048
ltoes -24.6387
394
root 3.74185 17.0853 16.0983 -153.788 -2.23522 176.544
lowerback -30.9286 -2.48756 -8.59702
upperback -2.14088 -1.10557 -0.579671
thorax 13.8201 -1.36312 3.47462
lowerneck -0.345903 -2.94966 0.338258
upperneck 4.41954 -4.13678 2.26883
head 1.46561 -2.063 0.5862
rclavicle 1.2921e-015 -3.57812e-015
rhumerus -36.999 -17.9292 -77.4852
rradius 30.7958
rwrist -3.58728
rhand -2.98975 -53.6322
rfingers 7.12502
rthumb 22.7238 -82.3141
lclavicle 1.2921e-015 -3.57812e-015
lhumerus -32.1405 5.60912 79.8974
lradius 21.1998
lwrist -5.21328
lhand -19.8228 -11.6684
lfingers 7.12502
lthumb 6.51089 18.2115
rfemur -20.9634 4.27307 19.0969
rtibia 5.69767
rfoot -18.9142 -4.46221
rtoes -16.1997
lfemur -22.3435 -7.95835 -23.6493
ltibia 6.73231
lfoot -6.57445 -3.60076
ltoes -24.6178
395
root 3.73986 17.0848 16.0975 -153.782 -2.24574 176.542
lowerback -30.9037 -2.50215 -8.60295
upperback -2.17015 -1.13115 -0.582403
thorax 13.778 -1.37459 3.46502
lowerneck -0.339786 -3.03537 0.414908
upperneck 4.37883 -4.2543 2.3135
head 1.45228 -2.12053 0.585947
rclavicle -9.34288e-015 1.23246e-014
rhumerus -37.1406 -18.0536 -77.3536
rradius 30.6469
rwrist -3.5348
rhand -3.2965 -54.0867
rfingers 7.12502
rthumb 22.4294 -82.8044
lclavicle -9.34288e-015 1.23246e-014
lhumerus -32.1974 5.64511 79.7813
lradius 21.0958
lwrist -5.2684
lhand -19.8422 -11.8943
lfingers 7.12502
lthumb 6.4922 17.9862
rfemur -20.946 4.32193 19.0911
rtibia 5.66481
rfoot -18.885 -4.59206
rtoes -16.6081
lfemur -22.3526 -7.97639 -23.6562
ltibia 6.74409
lfoot -6.66927 -3.57354
ltoes -24.4683
396
root 3.73844 17.0839 16.0971 -153.742 -2.22528 176.588
lowerback -30.9431 -2.52501 -8.57261
upperback -2.17284 -1.17191 -0.56568
thorax 13.7974 -1.39279 3.44942
lowerneck -0.430929 -3.08896 0.581499
upperneck 4.41229 -4.32267 2.1581
head 1.47117 -2.15295 0.50753
rclavicle 3.32964e-015 -8.74653e-015
rhumerus -37.1297 -18.2799 -77.199
rradius 30.358
rwrist -3.31285
rhand -3.44459 -54.2774
rfingers 7.12502
rthumb 22.2872 -83.0121
lclavicle 3.32964e-015 -8.74653e-015
lhumerus -32.1596 5.9591 79.5686
lradius 20.9802
lwrist -5.59434
lhand -19.9562 -11.9572
lfingers 7.12502
lthumb 6.3821 17.9266
rfemur -21.0356 4.36676 19.1335
rtibia 5.7315
rfoot -18.8806 -4.64984
rtoes -16.9275
lfemur -22.407 -7.97162 -23.6053
ltibia 6.75912
lfoot -6.73264 -3.48312
ltoes -24.8204
397
root 3.73844 17.0827 16.0961 -153.699 -2.20486 176.647
lowerback -30.9849 -2.55776 -8.54528
upperback -2.17511 -1.2262 -0.530553
thorax 13.8206 -1.41749 3.44996
lowerneck -0.430587 -3.04858 0.470818
upperneck 4.22312 -4.26123 2.27397
head 1.41616 -2.12184 0.56409
rclavicle -5.61567e-015 3.37934e-014
rhumerus -37.0624 -18.6586 -76.9457
rradius 29.962
rwrist -2.88
rhand -3.31545 -54.0962
rfingers 7.12502
rthumb 22.4112 -82.8161
lclavicle -5.61567e-015 3.37934e-014
lhumerus -32.0538 6.45561 79.2956
lradius 20.6791
lwrist -6.06189
lhand -19.9776 -12.1494
lfingers 7.12502
lthumb 6.36145 17.7351
rfemur -21.1285 4.46369 19.1739
rtibia 5.8124
rfoot -18.9139 -4.65889
rtoes -16.9382
lfemur -22.4595 -7.97521 -23.5231
ltibia 6.77466
lfoot -6.67664 -3.41362
ltoes -25.0909
398
root 3.73791 17.0821 16.0938 -153.711 -2.20518 176.688
lowerback -30.9974 -2.594 -8.52698
upperback -2.18053 -1.28293 -0.510043
thorax 13.8272 -1.44279 3.43921
lowerneck -0.327303 -3.06697 0.211442
upperneck 4.1229 -4.3048 2.78191
head 1.38736 -2.14415 0.76627
rclavicle 2.23633e-015 2.70347e-014
rhumerus -37.1261 -18.9341 -76.7282
rradius 29.7436
rwrist -2.51633
rhand -2.90255 -54.1342
rfingers 7.12502
rthumb 22.8075 -82.8058
lclavicle 2.23633e-015 2.70347e-014
lhumerus -32.0226 6.61506 79.1232
lradius 20.4205
lwrist -6.27854
lhand -19.8353 -12.308
lfingers 7.12502
lthumb 6.49877 17.5723
rfemur -21.102 4.64021 19.1853
rtibia 5.81678
rfoot -18.954 -4.74975
rtoes -16.6539
lfemur -22.4326 -7.98827 -23.4714
ltibia 6.76512
lfoot -6.63721 -3.38519
ltoes -24.9344
399
root 3.73654 17.0814 16.0929 -153.685 -2.20777 176.69
lowerback -31.0472 -2.62744 -8.53039
upperback -2.17969 -1.32329 -0.506979
thorax 13.8545 -1.463 3.42625
lowerneck -0.19301 -3.02817 0.199602
upperneck 3.77193 -4.23329 2.80015
head 1.25313 -2.10996 0.779249
rclavicle -1.98785e-015 -1.78906e-014
rhumerus -37.2265 -19.13 -76.5788
rradius 29.675
rwrist -2.329
rhand -2.63285 -54.0049
rfingers 7.12502
rthumb 23.0663 -82.6444
lclavicle -1.98785e-015 -1.78906e-014
lhumerus -31.9726 6.6014 79.0498
lradius 20.2554
lwrist -6.447
lhand -19.8284 -12.2183
lfingers 7.12502
lthumb 6.50552 17.6618
rfemur -21.1026 4.66993 19.1804
rtibia 5.79922
rfoot -18.9591 -4.71731
rtoes -16.0574
lfemur -22.446 -7.96436 -23.4771
ltibia 6.73758
lfoot -6.62772 -3.45821
ltoes -24.2571
400
root 3.73777 17.0802 16.0953 -153.609 -2.21479 176.638
lowerback -31.0741 -2.68147 -8.62165
upperback -2.2167 -1.37213 -0.496331
thorax 13.8287 -1.49225 3.46531
lowerneck -0.270579 -2.92694 0.0663854
upperneck 3.57421 -4.08336 2.82564
head 1.20575 -2.03442 0.811411
rclavicle 3.72721e-015 1.90833e-014
rhumerus -37.3272 -19.3157 -76.3995
rradius 29.5449
rwrist -2.22617
rhand -2.62269 -53.8954
rfingers 7.12502
rthumb 23.076 -82.5337
lclavicle 3.72721e-015 1.90833e-014
lhumerus -31.9525 6.76296 78.9286
lradius 20.0764
lwrist -6.62287
lhand -19.7714 -12.2365
lfingers 7.12502
lthumb 6.56051 17.6418
rfemur -21.1796 4.63124 19.1546
rtibia 5.82952
rfoot -18.9442 -4.68741
rtoes -15.8171
lfemur -22.571 -7.8788 -23.5478
ltibia 6.82123
lfoot -6.62887 -3.58682
ltoes -24.0811
